<?xml version="1.0" encoding="UTF-8" standalone="no"?>
<svg width="10px" height="16px" viewBox="0 0 10 16" version="1.1" xmlns="http://www.w3.org/2000/svg" xmlns:xlink="http://www.w3.org/1999/xlink">
    <!-- Generator: Sketch 3.6.1 (26313) - http://www.bohemiancoding.com/sketch -->
    <title>Group 10</title>
    <desc>Created with Sketch.</desc>
    <defs></defs>
    <g id="Page-1" stroke="none" stroke-width="1" fill="none" fill-rule="evenodd">
        <g id="Desktop-HD-Copy-4" transform="translate(-135.000000, -1964.000000)">
            <g id="Group-10" transform="translate(135.000000, 1964.000000)">
                <path d="M0.665636827,1.68790037 C0.665636827,1.06816723 1.15354569,0.565195414 1.75715553,0.565195414 L8.30626775,0.565195414 C8.9098776,0.565195414 9.39778646,1.06816723 9.39778646,1.68790037 L9.39778646,14.0376548 C9.39778646,14.6585107 8.9098776,15.1603598 8.30626775,15.1603598 L1.75715553,15.1603598 C1.15354569,15.1603598 0.665636827,14.6585107 0.665636827,14.0376548 L0.665636827,1.68790037 L0.665636827,1.68790037 Z" id="Stroke-11" stroke="#003979" stroke-linecap="round" stroke-linejoin="round"></path>
                <path d="M0.665636827,11.4285714 L9.39778646,11.4285714" id="Stroke-13" stroke="#003979" stroke-linecap="round" stroke-linejoin="round"></path>
                <path d="M5.03171164,12.9149499 C4.73045248,12.9149499 4.48595229,13.1664358 4.48595229,13.4763024 C4.48595229,13.7861689 4.73045248,14.0376548 5.03171164,14.0376548 C5.3329708,14.0376548 5.57747099,13.7861689 5.57747099,13.4763024 C5.57747099,13.1664358 5.3329708,12.9149499 5.03171164,12.9149499" id="Fill-15" fill="#003979"></path>
            </g>
        </g>
    </g>
</svg>