<?xml version="1.0" encoding="utf-8"?>
<!-- Generator: Adobe Illustrator 18.1.1, SVG Export Plug-In . SVG Version: 6.00 Build 0)  -->
<svg version="1.1" id="レイヤー_1" xmlns="http://www.w3.org/2000/svg" xmlns:xlink="http://www.w3.org/1999/xlink" x="0px"
	 y="0px" viewBox="0 0 291.5 34.9" enable-background="new 0 0 291.5 34.9" xml:space="preserve">
<g>
	<path fill="#FFFFFF" d="M15.5,34.6l-1.6-8.1H6l-1.6,8.1H0L8,0.4h4l7.9,34.2H15.5z M9.9,7.1L6.7,22.8h6.4L9.9,7.1z"/>
	<path fill="#FFFFFF" d="M36.1,32.8c-1.3,1.2-3.3,2.1-6,2.1c-2.6,0-4.7-0.7-6-2.1c-1.6-1.6-2.1-3.6-2.1-7.2h4.1
		c0,2.3,0.2,3.5,1.2,4.5c0.6,0.6,1.5,1.1,2.8,1.1c1.4,0,2.3-0.4,2.9-1.1c0.9-1,1.1-2.3,1.1-4.6c0-3.9-0.6-5.1-3.4-6.3l-3.9-1.6
		c-3.5-1.4-4.7-3.4-4.7-8.5c0-3,0.9-5.4,2.6-7c1.3-1.2,3.2-2,5.4-2c2.5,0,4.4,0.7,5.7,2c1.7,1.7,2.3,3.9,2.3,7H34
		c0-1.8-0.2-3.1-1.1-4.1c-0.6-0.7-1.5-1.2-2.8-1.2c-1.2,0-2.1,0.4-2.6,1.1c-0.8,0.9-1.2,2.3-1.2,4.1c0,3.4,0.5,4.4,3.3,5.5l3.8,1.6
		c3.9,1.6,4.8,4,4.8,9.4C38.2,28.9,37.7,31.2,36.1,32.8z"/>
	<path fill="#FFFFFF" d="M43.3,34.6V0.4h4.1v34.2H43.3z"/>
	<path fill="#FFFFFF" d="M66.3,34.6l-1.6-8.1h-7.9l-1.6,8.1h-4.3l8-34.2h4l7.9,34.2H66.3z M60.8,7.1l-3.2,15.7h6.4L60.8,7.1z"/>
	<path fill="#FFFFFF" d="M76.1,34.7c-1.5,0-2.7-1.2-2.7-2.7s1.2-2.7,2.7-2.7s2.8,1.2,2.8,2.7S77.7,34.7,76.1,34.7z"/>
	<path fill="#FFFFFF" d="M93.4,34.6V0.4h4.1v34.2H93.4z"/>
	<path fill="#FFFFFF" d="M116.6,34.6l-8.8-23.4v23.4h-4.1V0.4h3.8l8.8,23.4l0-23.4h4.1v34.2H116.6z"/>
	<path fill="#FFFFFF" d="M139.5,32.8c-1.3,1.2-3.3,2.1-6,2.1c-2.6,0-4.7-0.7-6-2.1c-1.6-1.6-2.1-3.6-2.1-7.2h4.1
		c0,2.3,0.2,3.5,1.2,4.5c0.6,0.6,1.5,1.1,2.8,1.1c1.4,0,2.3-0.4,2.9-1.1c0.9-1,1.1-2.3,1.1-4.6c0-3.9-0.6-5.1-3.4-6.3l-3.9-1.6
		c-3.5-1.4-4.7-3.4-4.7-8.5c0-3,0.9-5.4,2.6-7c1.3-1.2,3.2-2,5.4-2c2.5,0,4.4,0.7,5.7,2c1.7,1.7,2.3,3.9,2.3,7h-4.1
		c0-1.8-0.2-3.1-1.1-4.1c-0.6-0.7-1.5-1.2-2.8-1.2c-1.2,0-2.1,0.4-2.6,1.1c-0.8,0.9-1.2,2.3-1.2,4.1c0,3.4,0.5,4.4,3.3,5.5l3.8,1.6
		c3.9,1.6,4.8,4,4.8,9.4C141.6,28.9,141.1,31.2,139.5,32.8z"/>
	<path fill="#FFFFFF" d="M146.7,34.6V0.4h4.1v34.2H146.7z"/>
	<path fill="#FFFFFF" d="M164.6,34.9c-2.7,0-4.6-1-5.9-2.4c-2.4-2.6-2.5-6.5-2.5-15c0-8.5,0.1-12.4,2.5-15C160,1,161.9,0,164.6,0
		c2.4,0,4.2,0.8,5.5,2.1c1.6,1.6,2.4,4,2.4,6.8h-4.1c0-2.3-0.6-5.2-3.8-5.2c-1.3,0-2.2,0.5-2.8,1.3c-1.2,1.6-1.4,4.4-1.4,12.5
		s0.2,10.8,1.4,12.5c0.6,0.8,1.4,1.3,2.8,1.3c2.4,0,3.8-2,3.8-4.8v-6.8h-3.8v-3.5h7.9v10.1C172.5,32,169.1,34.9,164.6,34.9z"/>
	<path fill="#FFFFFF" d="M189.6,34.6V19.1H182v15.5h-4.1V0.4h4.1v14.9h7.6V0.4h4.1v34.2H189.6z"/>
	<path fill="#FFFFFF" d="M207.7,4.1v30.5h-4.1V4.1h-5.8V0.4h15.6v3.7H207.7z"/>
	<path fill="#FFFFFF" d="M239.9,32.5c-1.3,1.4-3.2,2.4-5.9,2.4c-2.7,0-4.6-1-5.9-2.4c-2.4-2.6-2.5-6.5-2.5-15c0-8.5,0.1-12.4,2.5-15
		C229.4,1,231.3,0,234,0c2.7,0,4.6,1,5.9,2.4c2.4,2.6,2.4,6.5,2.4,15C242.3,26,242.3,29.9,239.9,32.5z M236.8,5
		c-0.6-0.8-1.4-1.3-2.8-1.3c-1.3,0-2.2,0.5-2.8,1.3c-1.2,1.6-1.4,4.4-1.4,12.5s0.2,10.8,1.4,12.5c0.6,0.8,1.4,1.3,2.8,1.3
		c1.3,0,2.2-0.5,2.8-1.3c1.2-1.6,1.4-4.4,1.4-12.5S238,6.6,236.8,5z"/>
	<path fill="#FFFFFF" d="M261,32.7c-1.5,1.5-3.5,2.3-5.7,2.3c-2.2,0-4.2-0.8-5.7-2.3c-1.4-1.4-2.2-3.4-2.2-5.9V0.4h4.1V27
		c0,2.7,1.7,4.2,3.7,4.2c2.1,0,3.8-1.5,3.8-4.2V0.4h4.1v26.4C263.2,29.3,262.4,31.3,261,32.7z"/>
	<path fill="#FFFFFF" d="M276.9,4.1v30.5h-4.1V4.1H267V0.4h15.6v3.7H276.9z"/>
	<path fill="#FFFFFF" d="M288.8,34.7c-1.5,0-2.7-1.2-2.7-2.7s1.2-2.7,2.7-2.7s2.8,1.2,2.8,2.7S290.3,34.7,288.8,34.7z"/>
</g>
</svg>
