<?xml version="1.0" encoding="UTF-8" standalone="no"?>
<svg width="92px" height="92px" viewBox="0 0 92 92" version="1.1" xmlns="http://www.w3.org/2000/svg" xmlns:xlink="http://www.w3.org/1999/xlink">
    <!-- Generator: Sketch 3.6.1 (26313) - http://www.bohemiancoding.com/sketch -->
    <title>Group 8</title>
    <desc>Created with Sketch.</desc>
    <defs></defs>
    <g id="Page-1" stroke="none" stroke-width="1" fill="none" fill-rule="evenodd">
        <g id="NAR_About-2-Copy" transform="translate(-466.000000, -1294.000000)">
            <g id="Group-8" transform="translate(467.000000, 1295.000000)">
                <ellipse id="Oval-1-Copy" stroke="#F2F2F2" fill="#FFFFFF" cx="45" cy="45" rx="45" ry="45"></ellipse>
                <g id="Group-2" transform="translate(24.000000, 24.000000)">
                    <path d="M0.42953979,12.6558206 C0.42953979,11.4563442 1.378494,10.4828561 2.55247986,10.4828561 L15.2901203,10.4828561 C16.4641061,10.4828561 17.4130604,11.4563442 17.4130604,12.6558206 L17.4130604,36.5584308 C17.4130604,37.7600802 16.4641061,38.7313954 15.2901203,38.7313954 L2.55247986,38.7313954 C1.378494,38.7313954 0.42953979,37.7600802 0.42953979,36.5584308 L0.42953979,12.6558206 L0.42953979,12.6558206 Z" id="Stroke-11" stroke="#003979" stroke-width="2" stroke-linecap="round" stroke-linejoin="round"></path>
                    <path d="M0.726838068,31.8142587 L17.4130604,31.8142587" id="Stroke-13" stroke="#003979" stroke-width="2" stroke-linecap="round" stroke-linejoin="round"></path>
                    <path d="M9.22076505,34.7426271 C8.63483359,34.7426271 8.15929501,35.2293712 8.15929501,35.8291094 C8.15929501,36.4288476 8.63483359,36.9155917 9.22076505,36.9155917 C9.80669651,36.9155917 10.2822351,36.4288476 10.2822351,35.8291094 C10.2822351,35.2293712 9.80669651,34.7426271 9.22076505,34.7426271" id="Fill-15" fill="#003979"></path>
                    <path d="M18.6258804,0.423926624 L38.6144404,0.423926624 C40.4567193,0.423926624 41.9458671,1.7409772 41.9458671,3.36377166 L41.9458671,35.702067 C41.9458671,37.3278013 40.4567193,38.6419121 38.6144404,38.6419121 L18.6258804,38.6419121 C16.7836014,38.6419121 15.2944537,37.3278013 15.2944537,35.702067 L15.2944537,3.36377166 C15.2944537,1.7409772 16.7836014,0.423926624 18.6258804,0.423926624 Z" id="Stroke-11" stroke="#003979" stroke-width="2" stroke-linecap="round" stroke-linejoin="round" fill="#FFFFFF"></path>
                    <path d="M15.2944537,30.2407486 L41.6485696,30.2407486" id="Stroke-13" stroke="#003979" stroke-width="2" stroke-linecap="round" stroke-linejoin="round"></path>
                    <path d="M28.8424514,33.5592237 C28.2565199,33.5592237 27.7809813,34.0459677 27.7809813,34.6457059 C27.7809813,35.2454442 28.2565199,35.7321882 28.8424514,35.7321882 C29.4283828,35.7321882 29.9039214,35.2454442 29.9039214,34.6457059 C29.9039214,34.0459677 29.4283828,33.5592237 28.8424514,33.5592237" id="Fill-15" fill="#003979"></path>
                </g>
            </g>
        </g>
    </g>
</svg>