<?xml version="1.0" encoding="UTF-8" standalone="no"?>
<svg width="92px" height="92px" viewBox="0 0 92 92" version="1.1" xmlns="http://www.w3.org/2000/svg" xmlns:xlink="http://www.w3.org/1999/xlink">
    <!-- Generator: Sketch 3.6.1 (26313) - http://www.bohemiancoding.com/sketch -->
    <title>Group 7</title>
    <desc>Created with Sketch.</desc>
    <defs></defs>
    <g id="Page-1" stroke="none" stroke-width="1" fill="none" fill-rule="evenodd">
        <g id="NAR_About-2-Copy" transform="translate(-148.000000, -1294.000000)">
            <g id="Group-7" transform="translate(149.000000, 1295.000000)">
                <path d="M45,90 C69.8528137,90 90,69.8528137 90,45 C90,20.1471863 69.8528137,0 45,0 C20.1471863,0 3.55271368e-14,20.1471863 3.55271368e-14,45 C3.55271368e-14,69.8528137 20.1471863,90 45,90 Z" id="Oval-1" stroke="#F2F2F2" fill="#FFFFFF"></path>
                <g id="Group-5" transform="translate(18.000000, 22.000000)" stroke="#003979" stroke-width="2" stroke-linejoin="round">
                    <path d="M54.0728534,37.8269141 C54.0728534,39.8031865 52.5215994,41.4053868 50.6050725,41.4053868 L4.36799375,41.4053868 C2.45377869,41.4053868 0.900212849,39.8031865 0.900212849,37.8269141 L0.900212849,4.42182622 C0.900212849,2.44555382 2.45377869,0.843353502 4.36799375,0.843353502 L50.6050725,0.843353502 C52.5215994,0.843353502 54.0728534,2.44555382 54.0728534,4.42182622 L54.0728534,37.8269141 L54.0728534,37.8269141 Z" id="Stroke-1" stroke-linecap="round"></path>
                    <path d="M11.7536139,44.8288293 L43.3182539,44.8288293" id="Stroke-3" stroke-linecap="round"></path>
                    <path d="M29.2502246,36.2472998 C29.2502246,37.1774491 28.4465799,37.9323529 27.4563749,37.9323529 C26.4661698,37.9323529 25.6625251,37.1774491 25.6625251,36.2472998 C25.6625251,35.3171505 26.4661698,34.5622468 27.4563749,34.5622468 C28.4465799,34.5622468 29.2502246,35.3171505 29.2502246,36.2472998 L29.2502246,36.2472998 Z" id="Stroke-7"></path>
                    <path d="M0.489670334,29.0937284 L53.6304351,29.0937284" id="Stroke-9"></path>
                </g>
            </g>
        </g>
    </g>
</svg>