<?xml version="1.0" encoding="UTF-8" standalone="no"?>
<svg width="19px" height="18px" viewBox="0 0 19 18" version="1.1" xmlns="http://www.w3.org/2000/svg" xmlns:xlink="http://www.w3.org/1999/xlink">
    <!-- Generator: Sketch 3.6.1 (26313) - http://www.bohemiancoding.com/sketch -->
    <title>Group 11</title>
    <desc>Created with Sketch.</desc>
    <defs></defs>
    <g id="Page-1" stroke="none" stroke-width="1" fill="none" fill-rule="evenodd" stroke-linejoin="round">
        <g id="Desktop-HD-Copy-4" transform="translate(-92.000000, -1932.000000)" stroke="#003979">
            <g id="Group-11" transform="translate(93.000000, 1933.000000)">
                <path d="M16.7867713,12.9914397 C16.7867713,13.6856568 16.2970355,14.2484715 15.6919819,14.2484715 L1.09478943,14.2484715 C0.490465667,14.2484715 0,13.6856568 0,12.9914397 L0,1.25703182 C0,0.562814623 0.490465667,0 1.09478943,0 L15.6919819,0 C16.2970355,0 16.7867713,0.562814623 16.7867713,1.25703182 L16.7867713,12.9914397 L16.7867713,12.9914397 Z" id="Stroke-1" stroke-linecap="round"></path>
                <path d="M2.76923077,16.2916667 L13.600648,16.2916667" id="Stroke-3" stroke-linecap="round"></path>
                <path d="M9.08136497,11.7291242 C9.08136497,11.9476008 8.90806229,12.1249151 8.69452864,12.1249151 C8.48099498,12.1249151 8.30769231,11.9476008 8.30769231,11.7291242 C8.30769231,11.5106476 8.48099498,11.3333333 8.69452864,11.3333333 C8.90806229,11.3333333 9.08136497,11.5106476 9.08136497,11.7291242 L9.08136497,11.7291242 Z" id="Stroke-7"></path>
                <path d="M0,8.5 L16.7867713,8.5" id="Stroke-9"></path>
            </g>
        </g>
    </g>
</svg>